<svg id="Layer_1" xmlns="http://www.w3.org/2000/svg" xmlns:xlink="http://www.w3.org/1999/xlink" viewBox="0 0 328.8 283.2"><style>.st1{opacity:.7}.st7{fill:#fae3c5}.st8{fill:#f9cda2}.st11{fill:#eaae06}.st12{fill:#453730}.st13{fill:#134f78}.st14{fill:#d3e9ef}.st25{fill:#0f212d}</style><linearGradient id="SVGID_1_" gradientUnits="userSpaceOnUse" x1="166.877" y1="297.719" x2="164.291" y2="54.606"><stop offset=".255" stop-color="#fff"/><stop offset=".334" stop-color="#f5fcff"/><stop offset=".471" stop-color="#d9f4ff"/><stop offset=".649" stop-color="#ace7ff"/><stop offset=".686" stop-color="#a1e4ff"/><stop offset=".871" stop-color="#6fc0eb"/></linearGradient><path d="M327.9 172.3c.1-42.3-34.3-76.7-76.6-76.7-20.2 0-38.5 7.8-52.2 20.5-52.6 42.9-76.7 1.1-76.7 1.1-1.5-1.8-3.5-10-3.5-12.5 0-32.2-26.1-58.2-58.2-58.2S2.5 72.6 2.5 104.7c0 1.2.5 16.5.5 16.5 0 .6 0 1.2.1 1.8 4.2 101 112.1 177.2 210.2 152.9 49.8-12.3 78.4-32.8 78.4-32.8 21.7-13.5 36.1-43.4 36.2-70.8z" fill="url(#SVGID_1_)"/><g class="st1"><defs><path id="SVGID_2_" class="st1" d="M327.9 172.3c.1-42.3-34.3-76.7-76.6-76.7-20.2 0-38.5 7.8-52.2 20.5-52.6 42.9-76.7 1.1-76.7 1.1-1.5-1.8-3.5-10-3.5-12.5 0-32.2-26.1-58.2-58.2-58.2S2.5 72.6 2.5 104.7c0 1.2.5 16.5.5 16.5 0 .6 0 1.2.1 1.8 4.2 101 112.1 177.2 210.2 152.9 49.8-12.3 78.4-32.8 78.4-32.8 21.7-13.5 36.1-43.4 36.2-70.8z"/></defs><clipPath id="SVGID_3_"><use xlink:href="#SVGID_2_" overflow="visible"/></clipPath><linearGradient id="SVGID_4_" gradientUnits="userSpaceOnUse" x1="200.397" y1="241.052" x2="200.169" y2="295.362"><stop offset="0" stop-color="#e4e6f9"/><stop offset="1" stop-color="#d2d8f9"/></linearGradient><path d="M300.2 268.5h-6.3v-50.2C279 206.4 273 183 270.6 169.8h-9.1v98.7h-3.7v-45.2h-3.3v-8.8h-9.1v8.8h-23.8v45.2H217v-27.7h-16.3v-15.5h-15.6l-.1 43.2h-4.6v-97h-4.7v-9h-1.1v9.1h-4.5L159.8 185v83.5h-5V191h-3.3v-10.7h-1.2V191H136v77.5h-4.1v-31H105v31h-4.7v18.7h4.7v.2h26.9v-.2h168.4v-18.7z" clip-path="url(#SVGID_3_)" fill="url(#SVGID_4_)"/><path d="M310.3 121.2c-.4 0-.8 0-1.2.1-1.3-9-9-15.9-18.4-15.9-10.3 0-18.6 8.3-18.6 18.6v.5c-.7-.2-1.5-.3-2.2-.3-4.9 0-8.9 4-8.9 8.9 0 .5.1 1 .1 1.5-2.7.3-4.8 2.6-4.8 5.4 0 3 2.5 5.5 5.5 5.5h48.5c6.7 0 12.1-5.4 12.1-12.1 0-6.8-5.4-12.2-12.1-12.2z" opacity=".8" fill="#fff" clip-path="url(#SVGID_3_)"/><linearGradient id="SVGID_5_" gradientUnits="userSpaceOnUse" x1="67.612" y1="139.16" x2="63.376" y2="329.465"><stop offset="0" stop-color="#a6ecff"/><stop offset="1" stop-color="#d2d8f9"/></linearGradient><path d="M100.5 205.5H86.3v59.8H72.2V193H58.8v-9.9h-1.1v9.9h-3.1v72.3H50v-77.9l-9.7-12.5h-4.2v-8.4h-1v8.4h-4.4v90.4h-.2v17.4H76v.2h24.5z" fill="url(#SVGID_5_)" clip-path="url(#SVGID_3_)"/></g><path d="M45.3 88.2h-.8c-.8-5.7-5.7-10.1-11.6-10.1-6.5 0-11.8 5.3-11.8 11.8v.3c-.5-.1-.9-.2-1.4-.2-3.1 0-5.6 2.5-5.6 5.6 0 .3 0 .6.1.9-1.7.2-3.1 1.7-3.1 3.4 0 1.9 1.6 3.5 3.5 3.5h30.8c4.2 0 7.7-3.4 7.7-7.7s-3.6-7.5-7.8-7.5z" opacity=".5" fill="#fff"/><path d="M62.7 268.4s-.3 5.3-.6 5.7c-1.1.1-2.7 0-2.7 0v-1.3s-1.5-.4-3.4 1.4c0 0-3.1.3-5.4 0 0 0-1.4-1.4 4.2-2.8 0 0 3.1-1.1 3.9-2.9h4zm18.9.1s.3 5.3.6 5.7c1.1.1 2.7 0 2.7 0v-1.3s1.5-.4 3.4 1.4c0 0 3.1.3 5.4 0 0 0 1.4-1.4-4.2-2.8 0 0-3.1-1.1-3.9-2.9h-4z" fill="#020304"/><path class="st7" d="M129 108.8c-4 5.5-11.4 10.2-19.1 16.3l-18.5.4.6 9.2c4.4 1.2 20.3-1.4 20.3-1.4 10.7-3.1 19.3-21.3 20.7-23l-4-1.5z"/><path class="st8" d="M129 108.8c-4 5.5-11.4 10.2-19.1 16.3l-10.9.2c.4 1.5 1.5 2.9 3.7 3.9.2.1 6.7-2.9 7.2-2.7.5.2 1.9.7 3.7-.9 1.8-1.6 8.4-9.3 10.7-11.5 2.3-2.2 5-3.9 5.3-4.9v-.2l-.6-.2z"/><path d="M93.6 204.1l-7.5 64.7h-5l-6.6-52.4h-1.3l-10.1 52.4h-4.9S55 209.1 55.4 204c.6-5.2 30-12.3 38.2.1z" fill="#124f70"/><path d="M64.4 127.6l-8.2 2.7-15.4 19.5 10.3 10 5.1-5.7-.7 49.9 38.1.1-.8-63.8 9.4-2.3 1-15.2-9.6-.2H81.8z" fill="#f7c800"/><path class="st11" d="M62.6 192.4s-1.5.5-2.7.4c-1.2-.1-4.2 1.9-4.2 1.9l.1-5.8 4.1-3.8 6.9 2.3s.1.9-1.6.8l.4 1.7s-.3.3-1.2 0l-.1 1.3s-.2.5-2.3-.2c-2.2-.8.6 1.4.6 1.4zm31-69.8H81.8l-1.3.4c2.3.3 14.9 2.2 19.5 4.5l2.4 2 .3-.6.4-6.1-9.5-.2zm-42.9 21.7c3.3 2.2 14.4-1.2 14.4-1.2l10.7-7.4s-.3-7.6-2.7-10.6l-8.7 2.5-8.2 2.6-9.4 11.9c1.3.7 2.6 1.4 3.9 2.2z"/><path class="st11" d="M55.5 204c.2-.5 2.3-51.5 2.3-51.5l-1.7 1.6-.6 49.9z"/><path class="st7" d="M82.2 119.3v8.9c0 1.9-.7 3.6-1.9 5-1.4 1.6-3.4 2.6-5.7 2.6h-.5c-4.2 0-7.5-3.4-7.5-7.5v-8.9h15.6z"/><path class="st8" d="M66.7 119.3v8.9c0 4.2 3.4 7.5 7.5 7.5h.5c.4 0 .8 0 1.1-.1 0-1 .3-9.8.7-9.9.4-.1 3.4-2.2 5.7-4.7v-1.8H66.7z"/><path class="st7" d="M96 97c-7 5.9-12.7-1.4-12.7-1.4 5.9-.3 12.1-6.2 12.1-6.2-.3-1.9-.6-3.4-.7-4.2l4-3-8.8-8.2-.8-3.5c-7.1-12.1-18-15.8-28.4-12.4-.2.1-.3.1-.5.2-11.4 4.2-16.9 19.4-13 35.3.2 3.3 4.9 12.3 4.9 12.3 7 11.9 18.6 18.6 28.9 15.5.2 0 .3-.1.5-.2 8.8-2.9 14.1-12.2 14.7-23.4 0-.4 0-.8-.1-1.2 0 .3-.1.4-.1.4z"/><path class="st8" d="M82.2 121.1c.4-.8-14.6.9-19.7-7.6s-6.4-12.8-6.4-12.8-3.7-1.2-7.5-2.3c1.5 3.6 3.6 7.6 3.6 7.6 7 11.9 18.6 18.6 28.9 15.5.2 0 .3-.1.5-.2s.4-.2.6-.2z"/><path class="st12" d="M66.7 96.6zm0 0c-.1.3 0 .2 0 0z"/><path class="st12" d="M82.2 55.4c-3.3-5.8-12.7-5.3-13.5-5.3-19 .2-31.6 11.3-32.3 29.3 0 0-15.4 12.7 21 33.6 3.4.9 5.9-8.2 4.2-10.6-3.1-1-4.4-2.7-4.8-3.7-.1-.3-.2-.5-.3-.7-3.6-7.5 1.4-8.4 4-7 0 0 5.1 2.7 6.2 5.5 0-1.1 0-6.4-2.8-11 .9-11.5-5.6-9.7-3.3-12.5 1.6-2.5 4.5-5.2 10.8-6.9 1.2-.3 2.5-.5 3.8-.7.3 0 .5-.1.8-.1 6.8-.6 9-4.9 6.2-9.9z"/><path class="st13" d="M124.6 90s14.3 21.1 15.6 23.4c1.3 2.3 7.9-.7 7.2-2.5l-15-23.7c.1.1-11.1-4.1-7.8 2.8z"/><path class="st13" d="M112.4 93.4s-3.2.6-5.5-.7c-1.6-.9-5.6-4.2-4-9.8.6-1.9 1.4-1.9 3.2-3.6 1.6-1.5 27-18 48.2-52.7 1.9-3.1 5.5-4.9 9.1-4.2 5 1 12.1 6.3 20.4 23.2 0 0 14.4 31 1.5 35.8s-13.7-6.2-72.9 12z"/><path class="st14" d="M139.7 85.8c-7.4 1.8-16.4 4.2-27.3 7.6 0 0-3.2.6-5.5-.7-1.6-.9-5.6-4.2-4-9.8.6-1.9 1.4-1.9 3.2-3.6.9-.9 9.6-6.7 20.9-17.9.4 6.9 2.9 16.6 12.7 24.4z"/><path class="st7" d="M135.3 105.6s-.6-2.1-1.6-3.1c-.5-.5-1.1-1.2-1.6-1.7s-.5-1.5-.5-1.5 1.6-3.9 1-3.9c-1.6 0-2.9 1.7-3 2.4-.4 2.5-.4 5.4-.4 5.4.2 1.1.2 4.5 0 5.5l3.9 1.5v-.2c2.8-3.7 2.2-4.4 2.2-4.4z"/><path class="st8" d="M129.6 109c.2-1.4 0-7.1.2-8.4.1-1.4 1.2-4.5 2.6-5.1-1.6 0-2.9 1.7-3 2.4-.4 2.5-.4 5.4-.4 5.4.2 1.1.2 4.5 0 5.5l.6.2z"/><ellipse transform="rotate(-25.19 172.151 51.93)" cx="172.2" cy="51.9" rx="11.8" ry="30.7" fill="#fff"/><ellipse transform="rotate(-25.19 172.151 51.93)" class="st14" cx="172.2" cy="51.9" rx="11" ry="28.7"/><path class="st13" d="M161.5 51l11.7-4.1c1.1-.4 2.4.1 2.9 1.3l1.4 3.3c.5 1.1.1 2.3-.9 2.9l-10.4 6.1s-3.2-3.6-4.7-9.5z"/><path class="st7" d="M137.7 94.1s4 6.4 3.6 6.8c-.3.4-3.5 2.3-4 1.5 0 0-.8-1.5-1.1-1.5-.3 0-1.9-1.6-1.8-2.2s-1.7-1.2-1.3-2.2c.4-.9 3.7-2.5 4.6-2.4z"/><path d="M207.4.1c-.6-.6-1.5-.6-2.1 0l-18.8 19.3c-.6.6-.6 1.5 0 2.1.3.3.7.4 1 .4.4 0 .8-.2 1.1-.5l18.8-19.3c.6-.5.6-1.4 0-2zM234.3 57l-30.5 2.8c-.8.1-1.4.8-1.4 1.6.1.8.7 1.4 1.5 1.4h.1l30.5-2.8c.8-.1 1.4-.8 1.4-1.6s-.8-1.4-1.6-1.4zm.1-34c-.4-.7-1.3-1-2-.7l-31.6 15.8c-.7.4-1 1.3-.7 2 .3.5.8.8 1.3.8.2 0 .5-.1.7-.2L233.7 25c.7-.3 1-1.2.7-2z" fill="#6d6d6d"/><linearGradient id="SVGID_6_" gradientUnits="userSpaceOnUse" x1="251.906" y1="109.6" x2="254.205" y2="85.845"><stop offset=".338" stop-color="#f3ffff"/><stop offset=".483" stop-color="#effcfd"/><stop offset=".623" stop-color="#e4f4f6"/><stop offset=".761" stop-color="#d0e7ec"/><stop offset=".896" stop-color="#b5d4dd"/><stop offset="1" stop-color="#9bc2ce"/></linearGradient><path d="M251 81.5h12.1s5.2 22.6-10.7 27.1l-10-5.5c-.1.1 15-6.1 8.6-21.6z" fill="url(#SVGID_6_)"/><linearGradient id="SVGID_7_" gradientUnits="userSpaceOnUse" x1="208.565" y1="142.704" x2="217.511" y2="137.602"><stop offset=".338" stop-color="#f3ffff"/><stop offset=".483" stop-color="#effcfd"/><stop offset=".623" stop-color="#e4f4f6"/><stop offset=".761" stop-color="#d0e7ec"/><stop offset=".896" stop-color="#b5d4dd"/><stop offset="1" stop-color="#9bc2ce"/></linearGradient><path d="M203.4 144.2s3-10.5 14.4-11.9l4.8 7.5s-6-2.5-11.9 8.5l-7.3-4.1z" fill="url(#SVGID_7_)"/><linearGradient id="SVGID_8_" gradientUnits="userSpaceOnUse" x1="217.935" y1="137.619" x2="220.718" y2="136.029"><stop offset=".338" stop-color="#f3ffff"/><stop offset=".483" stop-color="#effcfd"/><stop offset=".623" stop-color="#e4f4f6"/><stop offset=".761" stop-color="#d0e7ec"/><stop offset=".896" stop-color="#b5d4dd"/><stop offset="1" stop-color="#9bc2ce"/></linearGradient><path d="M217.8 132.3s.6 1.5-2.6 2.3l5 6.8s2.5-.2 2.4-1.5l-4.8-7.6z" fill="url(#SVGID_8_)"/><linearGradient id="SVGID_9_" gradientUnits="userSpaceOnUse" x1="303.875" y1="167.022" x2="295.253" y2="179.091"><stop offset=".338" stop-color="#f3ffff"/><stop offset=".483" stop-color="#effcfd"/><stop offset=".623" stop-color="#e4f4f6"/><stop offset=".761" stop-color="#d0e7ec"/><stop offset=".896" stop-color="#b5d4dd"/><stop offset="1" stop-color="#9bc2ce"/></linearGradient><path d="M305.4 168.8s-.1 8.7-8.5 12.3l-5.3-4.8s5.1.6 7.3-9.1l6.5 1.6z" fill="url(#SVGID_9_)"/><linearGradient id="SVGID_10_" gradientUnits="userSpaceOnUse" x1="295.532" y1="176.531" x2="293.879" y2="178.973"><stop offset=".338" stop-color="#f3ffff"/><stop offset=".483" stop-color="#effcfd"/><stop offset=".623" stop-color="#e4f4f6"/><stop offset=".761" stop-color="#d0e7ec"/><stop offset=".896" stop-color="#b5d4dd"/><stop offset="1" stop-color="#9bc2ce"/></linearGradient><path d="M296.9 181.1s-.8-1.1 1.5-2.3l-5.3-4.1s-1.9.7-1.5 1.7l5.3 4.7z" fill="url(#SVGID_10_)"/><linearGradient id="SVGID_11_" gradientUnits="userSpaceOnUse" x1="276.969" y1="89.962" x2="285.59" y2="53.562"><stop offset=".338" stop-color="#f3ffff"/><stop offset=".483" stop-color="#effcfd"/><stop offset=".623" stop-color="#e4f4f6"/><stop offset=".761" stop-color="#d0e7ec"/><stop offset=".896" stop-color="#b5d4dd"/><stop offset="1" stop-color="#9bc2ce"/></linearGradient><path d="M275.2 66.3s-1-14.9 11.9-22.2l7.9 5.2s-11.7 6.7-9.6 19.3l-10.2-2.3z" fill="url(#SVGID_11_)"/><linearGradient id="SVGID_12_" gradientUnits="userSpaceOnUse" x1="279.885" y1="89.806" x2="302.874" y2="103.408"><stop offset=".338" stop-color="#f3ffff"/><stop offset=".483" stop-color="#effcfd"/><stop offset=".623" stop-color="#e4f4f6"/><stop offset=".761" stop-color="#d0e7ec"/><stop offset=".896" stop-color="#b5d4dd"/><stop offset="1" stop-color="#9bc2ce"/></linearGradient><path d="M292.5 93.6s9.1.9 12.1 9.4l-3.9 4.2s-2.8-7.7-10.6-7.7l2.4-5.9z" fill="url(#SVGID_12_)"/><linearGradient id="SVGID_13_" gradientUnits="userSpaceOnUse" x1="156.947" y1="120.085" x2="191.815" y2="104.163"><stop offset=".367" stop-color="#f3ffff"/><stop offset=".499" stop-color="#effcfd"/><stop offset=".636" stop-color="#e2f4f6"/><stop offset=".774" stop-color="#cee5ea"/><stop offset=".912" stop-color="#b1d1da"/><stop offset="1" stop-color="#9bc2ce"/></linearGradient><path d="M188.3 97.9l5.5 8.5s-6.9 10.9-17.5 11.5l-4.9-8.2s11.5-.6 16.9-11.8z" fill="url(#SVGID_13_)"/><path class="st8" d="M134.3 98.7c-.1.5 1.5 2.2 1.8 2.2.3 0 1.1 1.5 1.1 1.5.5.8 3.7-1.1 4-1.5v-.2c-1-.4-4.4-1.8-5.2-1.8-.9 0-.9-1.4-1.7-2.4-.8-.9 3.2-2.4 3.2-2.4-.8 0-4.2 1.5-4.6 2.5-.2.9 1.5 1.6 1.4 2.1z"/><path class="st25" d="M72 215.3c-.4.5-11.7 53.5-11.7 53.5h2.9l10.1-52.4h1.3l-7.9-10.9c-.1 0 5.7 9.4 5.3 9.8z"/><path class="st7" d="M52.3 185.2c-5.6-19.4-7.8-21.1-7.8-21.1l4.3-6.5-6.5-6.3c-2.8 3.6-6.4 10.4-6.6 11.8-.9 5.7 9.7 19 14.8 23.9l1.8-1.8z"/><path class="st7" d="M53.9 184.7s-2.2-2.2-3.5-5.6c-.8-2.2-1.6 2.2-1.4 2.5s2.6 4.1 2.6 4.1l2.3-1z"/><path class="st7" d="M53.1 183.8s1.2.9 2.7.8c1.1-.1 2.5-.3 3.2-.5.4-.1.7 0 1.1.1 1.5.5 5.6 1.9 5.8 1.9 1.1.4 1.9 2.5-2.2 1-2.4-.9-3.9-1.2-3.9-1.2s3.4 1.2 3.7 1.4c1.4.7 2.7 1.6 2.3 2.4-.4.6-1.8-.4-2.7-.9-1-.5-3.7-1.1-3.7-1.1s3 .9 3.7 1.3c.5.4 2.2 1.1 1.4 2-.4.4-1.6-.5-2.3-.8-1.4-.6-1.8-.7-2.9-1 0 0 1.1.4 2 .9.7.4 1.6 1.5 1.6 1.9-.2.8-1.5-.1-2.6-1s-3.6.2-5.3.1c-1.7 0-4.5-4.2-4.5-4.2s-2.7-4.6 2.6-3.1z"/><path class="st8" d="M46.9 155.7c0 .4-1.9 5.8-3.3 7-1.4 1.2-4.7.9-5.3 1.6 0 0 5.6-.8 6.8.5 0 0-.3-.5-.5-.8l4.3-6.5-2-1.8zm11.4 34.7c-2.9.4-7-2.1-7.7-3.8-.1-.3-.4-.8-.8-1.5.1.9.7 1.9.7 1.9s2.7 4.2 4.5 4.2c1.7 0 4.2-1 5.3-.1.9.7 1.8 1.4 2.3 1.3-.8-.9-2.3-2.3-4.3-2z"/><path class="st8" d="M50.4 187l.3-.3c0-.1-.1-.2-.1-.2-.8-1.8-7.9-11.8-10.6-14.6-2.7-2.9-4.3-9.2-4.3-9.2-.1.2-.1.3-.1.4-.9 5.7 9.7 19 14.8 23.9zm11.3-1c-1.4-.4-2-.2-1.9-.1 0 0 1.5.3 3.9 1.2 1.7.6 2.6.6 2.9.3-1 0-3.7-1-4.9-1.4zm3.3 3.5c-.3-.2-2.7-1.7-5.6-1.8 0 0 .1 0 .2.1.7.2 2.7.7 3.5 1 1 .5 2.3 1.5 2.7.9 0-.1.1-.1.1-.2 0 0-.6.3-.9 0zm-.6 1.6c-.9-.1-1.4-.7-2.1-1.1-.7-.4-3.1-.6-3.1-.6 1.1.3 1.5.4 2.9 1 .7.1 1.9 1.1 2.3.7z"/><path class="st25" d="M81.1 268.8h1.5L75.3 218l-.8-1.6z"/></svg>